{"title":"Fast Five *2011* [TS.XviD-miguel] [ENG]","uid":6348858,"size":1503163562,"categoryP":"video","categoryS":"movies","magnet":"?xt=urn:btih:a9e22c72041e3d336766a3ed5769070ebe9c548a&amp;dn=Fast+Five+%2A2011%2A+%5BTS.XviD-miguel%5D+%5BENG%5D&amp;tr=udp%3A%2F%2Ftracker.openbittorrent.com%3A80&amp;tr=udp%3A%2F%2Fopen.demonii.com%3A1337&amp;tr=udp%3A%2F%2Ftracker.coppersurfer.tk%3A6969&amp;tr=udp%3A%2F%2Fexodus.desync.com%3A6969","seeders":1,"leechers":0,"uploader":"miguel1983","files":-1,"time":1303926320,"description":" &lt;a href=&quot;http://img708.imageshack.us/img708/8600/fastfive2011.jpg&quot; rel=&quot;nofollow&quot; target=&quot;_NEW&quot;&gt;http://img708.imageshack.us/img708/8600/fastfive2011.jpg&lt;/a&gt;\n\nCountry.......: USA\nGenre.........: Action, Crime, Thriller, Drama\nDate release..: 15.04.2011 [World]\nDirector......: Justin Lin\nWriters.......: Chris Morgan, Gary Scott Thompson\nDuration......: 119 min.\nMore..........: http://www.imdb.com/title/tt1596343\nTrailer.......: http://www.imdb.com/video/imdb/vi1723702553\nTrailer.......:\n\nPilot :\nBack to the already released the next section, this time to continue with 5-speed, crayons and markers painted cars. Is this time they manage to beat the speed of light, to go into space. In the film, well-known actors are back and starting to race again. Look just as the rise of part 6.\n\nCats :\nVin Diesel   \t ...  \tDominic Toretto\nPaul Walker \t... \tBrian O'Conner\nJordana Brewster \t... \tMia\nTyrese Gibson \t... \tRoman\nLudacris \t... \tTej (as Chris 'Ludacris' Bridges)\nMatt Schulze \t... \tVince\nSung Kang \t... \tHan\nGal Gadot \t... \tGisele\nTego Calderon \t... \tLeo\nDon Omar \t... \tSantos\nJoaquim de Almeida \t... \tReyes\nDwayne Johnson \t... \tHobbs\nElsa Pataky \t... \tElena\nMichael Irby \t... \tZizi\nFernando Chien \t... \tWilkes \n\nData Technical :\n!!! SAMPLE !!!\nAudio.....: English\nSubtitles.: None\nFormat                           : AVI\nFormat/Info                      : Audio Video Interleave\nFile size                        : 1.39 GiB\nDuration                         : 1h 58mn\nOverall bit rate                 : 1 680 Kbps\nWriting library                  : VirtualDub build 32706/release\nVideo\nID                               : 0\nFormat                           : MPEG-4 Visual\nFormat profile                   : Advanced Simple@L5\nFormat settings, BVOP            : Yes\nFormat settings, QPel            : No\nFormat settings, GMC             : No warppoints\nFormat settings, Matrix          : Default (MPEG)\nMuxing mode                      : Packed bitstream\nCodec ID                         : XVID\nCodec ID/Hint                    : XviD\nDuration                         : 1h 58mn\nBit rate                         : 1 542 Kbps\nWidth                            : 640 pixels\nHeight                           : 352 pixels\nDisplay aspect ratio             : 16:9\nFrame rate                       : 23.976 fps\nColor space                      : YUV\nChroma subsampling               : 4:2:0\nBit depth                        : 8 bits\nScan type                        : Progressive\nBits/(Pixel*Frame)               : 0.286\nStream size                      : 1.28 GiB (92%)\nWriting library                  : XviD 61\nAudio\nID                               : 1\nFormat                           : MPEG Audio\nFormat version                   : Version 1\nFormat profile                   : Layer 3\nMode                             : Joint stereo\nMode extension                   : MS Stereo\nCodec ID                         : 55\nCodec ID/Hint                    : MP3\nDuration                         : 1h 58mn\nBit rate mode                    : Constant\nBit rate                         : 128 Kbps\nChannel(s)                       : 2 channels\nSampling rate                    : 44.1 KHz\nVideo delay                      : 16ms\nStream size                      : 109 MiB (8%)\nAlignment                        : Split accross interleaves\nInterleave, duration             : 42 ms (1.00 video frame)\n\nScreen : &lt;a href=&quot;\nhttp://img94.imageshack.us/img94/745/fastfive2011s5.jpg&quot; rel=&quot;nofollow&quot; target=&quot;_NEW&quot;&gt;\nhttp://img94.imageshack.us/img94/745/fastfive2011s5.jpg&lt;/a&gt; &lt;a href=&quot;\nhttp://img684.imageshack.us/img684/7633/fastfive2011s1.jpg&quot; rel=&quot;nofollow&quot; target=&quot;_NEW&quot;&gt;\nhttp://img684.imageshack.us/img684/7633/fastfive2011s1.jpg&lt;/a&gt; &lt;a href=&quot;\nhttp://img860.imageshack.us/img860/8995/fastfive2011s2.jpg&quot; rel=&quot;nofollow&quot; target=&quot;_NEW&quot;&gt;\nhttp://img860.imageshack.us/img860/8995/fastfive2011s2.jpg&lt;/a&gt; &lt;a href=&quot;\nhttp://img822.imageshack.us/img822/8717/fastfive2011s3.jpg&quot; rel=&quot;nofollow&quot; target=&quot;_NEW&quot;&gt;\nhttp://img822.imageshack.us/img822/8717/fastfive2011s3.jpg&lt;/a&gt; &lt;a href=&quot;\nhttp://img190.imageshack.us/img190/1455/fastfive2011s4.jpg&quot; rel=&quot;nofollow&quot; target=&quot;_NEW&quot;&gt;\nhttp://img190.imageshack.us/img190/1455/fastfive2011s4.jpg&lt;/a&gt;","torrent":{"xt":"urn:btih:a9e22c72041e3d336766a3ed5769070ebe9c548a","amp;dn":"Fast+Five+%2A2011%2A+%5BTS.XviD-miguel%5D+%5BENG%5D","amp;tr":["udp%3A%2F%2Ftracker.openbittorrent.com%3A80","udp%3A%2F%2Fopen.demonii.com%3A1337","udp%3A%2F%2Ftracker.coppersurfer.tk%3A6969","udp%3A%2F%2Fexodus.desync.com%3A6969"],"infoHash":"a9e22c72041e3d336766a3ed5769070ebe9c548a","infoHashBuffer":{"type":"Buffer","data":[169,226,44,114,4,30,61,51,103,102,163,237,87,105,7,14,190,156,84,138]},"announce":[],"urlList":[]}}